<svg width="343" height="413" viewBox="0 0 343 413" fill="none" xmlns="http://www.w3.org/2000/svg">
<g opacity="0.2">
<circle cx="321.832" cy="46.5215" r="46" fill="#F4694C" fill-opacity="0.54"/>
<circle cx="15.8318" cy="205.521" r="15" fill="#374CB7"/>
<circle cx="55.3318" cy="99.0215" r="6.5" fill="#F4694C" fill-opacity="0.46"/>
<circle cx="371.832" cy="406.521" r="84" fill="#D7DEFF"/>
<path fill-rule="evenodd" clip-rule="evenodd" d="M201.156 125.066C205.13 122.834 207.45 118.835 209.747 114.875C210.092 114.28 210.437 113.685 210.787 113.098C211.021 112.705 211.277 112.299 211.538 111.886V111.886C212.227 110.794 212.951 109.647 213.403 108.524C213.601 108.033 213.771 107.312 213.944 106.584C214.147 105.724 214.353 104.855 214.609 104.339C215.167 103.214 219.404 102.702 222.29 102.353C223.243 102.238 224.049 102.141 224.526 102.045C229.599 101.027 235.662 100.416 239.807 104.387C240.792 105.331 241.896 106.202 243.003 107.075C244.331 108.122 245.664 109.173 246.805 110.36C248.637 112.266 251.104 115.473 251.974 118.019C247.508 118.88 240.089 121.516 238.311 126.202C231.765 120.193 229.002 130.201 227.553 135.452C227.464 135.772 227.381 136.075 227.301 136.356C223.736 134.813 223.922 130.119 224.058 126.682V126.682C224.077 126.2 224.095 125.743 224.101 125.323C224.111 124.7 224.205 124.051 224.298 123.417C224.607 121.294 224.89 119.351 221.857 119.179C218.915 119.014 216.057 120.212 213.403 121.334C210.092 122.735 206.618 124.829 203.943 127.235L201.156 125.066ZM194.724 115.706C194.724 115.82 194.723 115.934 194.721 116.047C194.711 117.06 194.701 118.069 195.009 119.045C195.187 119.609 195.189 120.434 195.192 121.226C195.194 121.8 195.196 122.357 195.264 122.785C192.39 121.91 187.049 120.612 184.114 121.792C181.309 122.92 180.955 128.137 180.856 130.675C180.831 131.316 180.921 132.086 181.015 132.885C181.173 134.241 181.341 135.682 180.975 136.724C180.692 137.527 180.702 137.765 180.72 137.822C180.672 137.794 180.452 137.786 179.645 138.368C179.286 138.627 178.895 138.833 178.501 139.04C178.033 139.286 177.562 139.535 177.139 139.876C176.014 140.783 175.63 141.788 175.168 142.992C175.05 143.303 174.925 143.628 174.782 143.967C174.104 145.575 172.296 147.004 170.278 146.946C170.535 146.48 170.807 146.02 171.079 145.561C172.524 143.119 173.947 140.713 172.86 137.807C171.903 135.251 173.529 132.259 174.86 129.81L174.938 129.666C175.02 129.516 175.252 129.182 175.564 128.734C176.954 126.739 179.917 122.483 178.132 122.122C176.862 121.864 174.124 127.164 173.111 129.124C172.991 129.357 172.895 129.543 172.829 129.666C171.09 128.49 170.309 127.041 171.647 125.27C172.121 124.644 172.644 124.059 173.168 123.473C173.782 122.787 174.398 122.099 174.938 121.339C175.414 120.669 175.887 119.961 176.366 119.244C177.521 117.514 178.712 115.73 180.076 114.295C183.465 110.731 189.381 108.304 194.261 108.282C194.152 109.671 194.31 111.005 194.471 112.357C194.601 113.449 194.732 114.552 194.724 115.706ZM180.732 137.838C180.734 137.836 180.731 137.829 180.72 137.822C180.725 137.837 180.731 137.84 180.732 137.838ZM208.489 172.659C209.45 170.639 210.291 168.873 210.787 167.98C213.786 162.583 216.756 157.232 219.568 151.735C217.338 152.585 215.449 153.889 213.536 155.21C213.247 155.409 212.958 155.608 212.667 155.807C211.659 156.494 210.559 157.115 209.453 157.738C207.794 158.675 206.121 159.619 204.726 160.807C204.41 161.076 204.154 161.374 203.91 161.658C203.353 162.307 202.859 162.882 201.855 162.872C201.168 162.866 200.195 162.157 199.326 161.522C198.82 161.153 198.348 160.809 197.988 160.644C197.28 160.32 196.695 159.895 196.117 159.475C195.466 159.002 194.822 158.535 194.018 158.223C193.518 158.029 193.109 157.964 192.732 157.905C192.096 157.804 191.551 157.717 190.813 157.046C190.337 159.858 183.726 158.533 179.438 157.674C178.014 157.389 176.845 157.155 176.243 157.14C176.014 157.135 175.776 157.128 175.532 157.121C173.39 157.059 170.726 156.981 168.859 157.783C167.429 158.397 165.739 159.784 164.272 160.987C163.706 161.452 163.173 161.889 162.701 162.244C160.374 163.993 158.715 166.224 157.002 168.646C154.804 171.753 158.087 171.453 160.455 171.237C160.618 171.222 160.778 171.208 160.93 171.195C166.328 170.736 171.574 171.645 176.778 172.879C181.426 173.98 185.653 175.671 190.103 177.457C190.927 177.788 192.425 178.565 194.115 179.443C197.559 181.23 201.8 183.432 202.755 183.106C203.665 182.795 206.371 177.109 208.489 172.659Z" fill="#FF6A66"/>
<path fill-rule="evenodd" clip-rule="evenodd" d="M238.651 137.651C240.525 137.555 242.39 137.974 244.264 137.792C242.637 136.375 241.01 134.958 239.383 133.541C238.665 134.803 238.612 136.239 238.651 137.651ZM194.198 108.524C189.348 108.545 183.432 110.981 180.063 114.539C178.278 116.424 176.803 118.956 175.293 121.074C174.281 122.496 173.292 123.868 172.063 125.116C170.271 126.937 170.784 127.353 172.803 128.724C173.443 127.526 176.831 121.123 178.251 121.411C180.409 121.849 176.242 128.612 175.786 129.455C174.438 131.948 172.261 135.43 173.239 138.059C174.53 141.53 172.659 143.508 171.033 146.465C172.74 146.514 172.908 145.849 173.496 144.393C174.252 142.523 175.076 140.96 176.673 139.666C177.91 138.665 179.934 138.243 180.515 137.034C181.233 135.539 180.782 132.588 180.841 130.925C180.929 128.398 180.936 122.425 183.72 121.302C186.637 120.126 191.882 121.235 194.734 122.106C194.378 119.879 193.255 118.425 193.27 115.95C193.287 113.36 194 111.049 194.198 108.524ZM156.94 149.847C159.477 149.044 161.882 148.197 164.492 147.65C167.224 147.077 167.406 146.422 168.946 144.079C170.113 142.304 171.529 140.92 171.198 138.745C170.986 137.35 170.223 136.671 170.452 135.102C170.595 134.13 171.049 133.069 171.376 132.144C171.778 131.01 172.611 129.724 170.674 129.667C169.605 129.636 169.552 130.201 168.828 131.148C167.492 132.899 165.955 134.488 164.533 136.166C162.064 139.081 159.445 142.183 156.689 144.881C153.655 147.849 151.036 151.429 149.074 155.229C148.712 155.931 146.51 160.065 147.449 160.875C148.312 161.62 153.111 159.884 153.986 159.681C157.764 158.804 162.051 158.491 165.62 156.898C167.438 156.087 171.451 155.118 172.887 153.863C174.222 152.696 174.162 149.868 173.387 148.223C171.219 149.572 155.543 154.662 156.94 149.847ZM204.135 126.649C206.666 124.362 209.658 122.528 212.784 121.169C215.579 119.953 219.052 118.598 222.163 118.809C226.038 119.072 224.419 122.193 224.405 124.851C224.387 128.379 222.841 133.46 227.052 135.29C228.427 130.406 231.325 118.857 238.267 125.257C240.041 120.561 246.369 118.971 250.824 118.109C250.017 115.736 247.564 113.589 245.863 111.808C243.736 109.58 242.057 106.969 239.926 104.784C235.717 100.468 228.091 101.854 222.761 102.93C220.982 103.289 215.825 103.739 214.963 105.046C214.423 105.865 214.725 107.867 214.324 108.869C213.772 110.249 212.829 111.529 212.072 112.804C209.312 117.456 206.503 122.138 201.779 124.802L204.135 126.649ZM219.583 151.711C217.084 152.67 215.245 154.273 213.028 155.624C210.34 157.261 207.188 158.795 204.776 160.817C203.893 161.557 203.397 162.835 202.179 162.918C201.119 162.99 199.505 161.759 198.565 161.328C196.989 160.605 195.483 159.509 193.9 158.864C192.598 158.334 192.021 158.442 190.895 157.411C190.263 161.172 178.771 157.657 176.36 157.6C174.13 157.547 171.07 157.811 168.994 158.707C167.016 159.561 165.469 161.442 163.776 162.722C161.455 164.479 159.241 166.255 157.532 168.686C155.188 172.02 158.725 171.077 161.083 170.875C166.467 170.415 171.704 171.697 176.894 172.935C181.533 174.041 186.115 175.367 190.556 177.161C193.053 178.17 195.681 179.097 198.03 180.408C199.269 181.099 201.277 182.792 202.698 182.304C204.001 181.857 205.3 178.121 206.09 176.629C207.624 173.733 209.238 170.886 210.823 168.018C213.815 162.601 216.778 157.229 219.583 151.711ZM188.827 223.408C190.367 222.524 192.878 222.762 194.581 222.391C196.506 221.972 198.441 221.29 200.276 220.578C202.135 219.858 203.891 219.121 205.589 218.22C206.366 217.808 207.401 217.402 208.119 216.83C208.697 216.369 208.908 215.513 209.442 215.095C210.833 214.003 211.242 214.688 211.428 212.583C211.631 210.297 210.348 209.002 208.751 207.291C207.321 205.76 205.464 204.436 203.668 203.359C202.873 202.883 202.024 202.346 201.214 201.892C199.987 201.203 198.342 200.058 197.699 201.536C199.039 201.878 199.335 203.591 198.125 204.206C197.46 204.544 196.454 204.048 195.705 204.407C194.548 204.961 193.436 206.509 192.445 207.342C189.195 210.079 186.087 211.105 181.833 211.324C172.944 211.783 163.635 210.769 154.917 209.451C152.673 209.112 150.433 209.48 148.169 209.399C145.965 209.32 143.668 208.838 141.502 208.466C137.329 207.749 132.932 207.159 128.824 206.105C123.857 204.829 118.873 203.18 114.209 201.043C109.735 198.993 104.679 195.606 99.6544 195.345C101.799 197.445 105.012 198.253 107.591 199.636C109.699 200.766 112.995 201.491 114.327 203.353C115.194 204.564 115.629 206.79 116.284 208.21C117.008 209.782 117.676 211.379 118.347 212.975C119.02 214.581 119.722 216.187 120.269 217.841C120.607 218.866 120.753 220.993 121.553 221.695C122.829 222.814 127.099 223.311 128.819 223.683C132.029 224.379 135.691 224.287 138.965 224.335C140.319 224.355 141.683 224.539 142.976 224.564C144.791 224.599 144.618 224.285 144.593 222.708C144.577 221.762 144.597 220.04 145.863 220.82C146.725 221.351 146.132 223.704 145.972 224.54C153.2 225.26 160.741 225.622 167.935 225.381C175.009 225.144 181.838 224.232 188.827 223.408ZM221.468 206.817C222.744 197.659 224.298 188.348 226.037 179.308C227.795 170.173 229.909 161.122 232.286 152.021C230.716 151.645 229.146 151.27 227.575 150.895C227.517 152.813 226.868 154.478 226.592 156.387C226.21 159.021 225.481 161.579 225.044 164.205C224.215 169.196 222.678 174.08 221.324 178.948C219.944 183.91 219.482 189.022 218.214 194.009C217.169 198.118 216.635 202.644 216.052 206.867C214.636 217.114 212.618 227.381 211.083 237.634C209.643 247.245 209.499 257.053 209.582 266.754C209.633 272.677 210.536 278.584 210.489 284.515C210.477 285.981 210.601 287.443 210.677 288.906C210.731 289.939 210.176 292.802 210.646 293.667C210.944 294.215 212.224 294.72 212.677 295.48C213.393 296.684 213.544 298.122 214.695 299.032C215.628 295.27 215.187 290.305 214.983 286.465C214.786 282.766 215.169 278.942 215.244 275.186C215.392 267.818 215.782 260.557 216.16 253.185C216.574 245.1 217.752 236.819 218.902 228.795C219.948 221.499 220.646 214.073 221.468 206.817ZM187.332 91.9655C186.826 91.9184 186.321 91.8716 185.815 91.8245C185.89 92.8902 185.665 94.6161 186.416 95.1718C186.986 95.5931 188.138 95.455 188.828 95.5894C191.09 96.0316 193.711 96.4014 195.957 95.596C196.829 95.283 196.269 94.7929 197.47 94.9965C198.917 95.2425 198.389 95.4715 198.807 96.3741C199.129 97.0708 199.294 98.2566 199.66 99.0928C200.149 100.212 201.14 102.216 200.716 103.508C200.304 104.765 198.768 105.144 198.115 106.567C197.629 107.625 197.744 109.163 197.491 110.328C197.155 111.882 196.729 113.43 196.541 115.013C196.305 117.007 196.386 119.346 198.856 119.656C201.149 119.943 202.789 119.206 204.326 117.536C207.263 114.348 210.616 109.848 212.341 105.838C212.542 105.37 213.038 104.588 212.969 104.087C212.832 103.095 212.773 104.099 212.458 103.41C212.158 102.751 211.687 102.153 211.41 101.422C210.414 98.7964 209.708 96.0438 209.309 93.2639C209.127 92.0045 209.067 90.7606 209.098 89.4891C209.108 89.0549 209.369 87.751 209.213 87.4538C209.055 87.1526 208.229 87.0137 207.971 86.7147C207.494 86.1605 206.674 84.5959 206.145 84.1808C205.494 83.6712 204.038 84.0748 203.774 83.061C203.351 81.4385 213.357 78.7957 208.683 76.6305C205.192 75.0139 199.839 83.1859 198.619 76.7555C198.408 75.6417 198.81 74.1298 198.322 73.109C197.782 71.9808 196.312 71.5591 195.285 71.01C193.975 70.3101 192.652 69.5907 191.378 68.8241C190.505 68.2986 189.246 66.9034 188.317 66.7756C188.683 68.6695 187.981 70.5466 187.97 72.4368C189.983 71.8919 191.369 71.8803 193.356 72.8493C194.303 73.3104 197.869 75.9273 196.062 77.1861C194.598 76.3208 193.033 75.5704 191.401 75.0616C190.757 74.8607 189.954 74.5876 189.269 74.5737C187.68 74.5418 187.904 74.708 187.308 75.9061C186.732 77.0601 186.856 80.0701 185.593 80.8071C184.288 81.5693 185.295 80.5025 184.18 80.7488C183.544 80.8895 182.852 81.3623 182.269 81.6293C183.067 82.495 184.677 83.2853 185.205 84.2468C185.977 85.6487 185.709 88.5478 185.83 90.0816C186.84 89.72 187.903 89.7052 188.928 89.4368C189.89 89.1838 191.225 88.0901 191.325 89.6982C191.437 91.4901 188.604 91.9655 187.332 91.9655ZM200.479 139.147C200.557 137.599 200.643 136.05 200.816 134.508C200.932 133.473 201.915 130.469 201.359 129.56C200.755 128.57 198.729 128.507 197.754 128.27C195.886 127.814 194.094 127.441 192.194 127.14C190.447 126.864 188.802 126.806 187.041 126.725C185.124 126.639 184.649 126.13 184.225 128.243C183.893 129.904 183.445 131.634 183.384 133.334C183.325 134.931 183.807 136.316 182.225 137.392C185.699 137.392 190.223 134.299 193.393 137.065C197.928 141.02 190.037 142.159 187.956 143.032C189.686 143.873 192.253 144.533 193.068 146.453C193.981 148.605 192.656 149.52 190.627 149.693C190.817 150.522 191.548 151.061 191.766 152.059C192.084 153.521 191.05 153.037 192.369 154.168C194.106 155.658 197.681 156.653 199.811 157.602C200.31 157.825 200.815 158.034 201.325 158.23C202.123 158.94 202.712 158.805 203.093 157.824C204.185 157.132 205.158 155.589 206.127 154.692C208.283 152.695 210.663 150.942 213.226 149.5C212.163 149.06 210.893 150.054 209.874 149.571C209.05 149.179 209.36 148.468 208.867 147.935C209.065 147.24 208.856 146.986 208.24 147.172C207.933 147.205 207.646 147.153 207.382 147.016C206.866 146.377 206.634 146.168 206.6 145.182C206.564 144.135 207.17 143.766 207.403 142.928C208.159 142.413 208.142 141.906 207.351 141.41C207.026 140.878 206.849 140.302 206.82 139.68C206.669 137.372 208.777 136.441 210.384 135.22C207.506 134.904 207.616 131.529 209.607 130.054C211.671 128.524 216.04 129.15 218.535 129.495C219.054 129.566 220.456 130.236 220.981 129.809C221.303 129.548 221.075 127.336 221.09 126.946C221.124 126.06 221.34 125.004 221.198 124.122C220.903 122.276 221.529 123.206 220.2 123.155C217.038 123.032 213.011 125.792 210.229 127.094C207.115 128.55 205.114 128.774 205.082 132.386C205.051 135.806 204.092 139.214 203.673 142.58C203.49 144.049 203.359 151.686 200.669 148.868C199.626 147.775 200.294 146.094 200.372 144.746C200.477 142.891 200.415 141.007 200.479 139.147ZM26.5232 253.632C28.0628 253.905 30.5698 253.021 32.2493 252.928C35.1857 252.767 38.2097 252.487 41.0868 251.876C43.3375 251.398 45.9023 250.977 47.116 248.798C48.2013 246.851 48.5846 244.413 49.169 242.288C49.4794 241.16 50.2804 239.524 50.28 238.357C50.2796 236.84 50.0752 237.139 48.4929 236.308C46.49 235.257 44.5413 233.793 42.3808 233.197C41.7272 233.069 41.0732 232.944 40.4188 232.821C39.5722 232.33 39.0946 232.572 38.9838 233.545C38.1574 234.416 37.6732 236.022 36.9798 237.041C35.3993 239.364 33.5224 240.947 31.0702 242.287C26.6576 244.697 22.5461 246.557 17.8201 248.133C15.2155 249.001 12.8138 250.22 10.268 251.177C8.22848 251.944 5.41367 252.177 3.84698 253.885C2.07926 255.811 4.79634 256.512 6.30655 257.814C7.54399 258.881 7.56807 259.126 9.26074 258.608C10.5218 258.221 11.6398 257.484 12.8507 256.983C16.9989 255.27 22.0195 254.13 26.5232 253.632ZM121.325 284.185C119.779 283.85 118.233 283.516 116.687 283.182C118.207 286.021 121.405 290.174 119.11 293.459C118.252 294.686 116.825 295.036 115.551 295.658C114.008 296.412 112.584 297.377 111.126 298.276C105.112 301.978 99.0007 305.733 92.6644 308.91C94.6481 309.55 97.6979 309.993 99.7409 309.435C102.12 308.786 104.323 307.294 106.765 306.642C111.147 305.472 115.758 304.476 120.21 303.877C123.849 303.386 132.957 304.494 132.515 299.022C132.094 293.826 128.991 288.869 128.068 283.733C125.801 284.237 123.64 284.149 121.325 284.185ZM213.473 201.028C215.236 192.38 216.288 183.584 218.367 174.998C219.404 170.715 220.134 166.372 221.147 162.088C221.619 160.094 221.975 158.081 222.434 156.092C222.899 154.077 223.899 152.219 224.128 150.136C222.444 150.553 222.054 154.41 221.544 155.86C220.607 158.522 219.586 161.08 218.383 163.628C216.471 167.679 214.441 171.587 212.284 175.514C210.009 179.657 207.606 183.64 204.764 187.423C203.83 188.666 202.563 189.64 201.961 191.003C201.014 193.148 200.616 195.704 199.713 197.936C200.349 198.259 201.994 198.34 202.775 198.494C204.227 198.78 205.244 199.035 206.639 199.726C209.097 200.942 211.161 202.384 212.803 204.573C213.215 203.45 213.323 202.217 213.473 201.028ZM144.981 267.015C144.952 258.685 144.834 250.285 144.971 242.018C145.008 239.722 145.195 237.245 145.528 234.967C145.737 233.535 146.967 230.491 146.159 229.805C145.467 229.218 141.82 229.604 140.925 229.583C139.189 229.543 137.458 229.466 135.719 229.335C135.719 232.422 136.925 235.928 137.485 238.981C138.007 241.829 138.437 244.694 138.868 247.555C139.801 253.752 140.066 260.033 141.079 266.246C141.998 271.88 143.209 277.49 143.876 283.122C144.243 286.214 144.984 289.131 145.56 292.221C145.861 293.833 146.959 300.47 148.34 301.122C148.633 298.741 147.439 295.866 147.225 293.459C147.005 290.974 146.834 288.471 146.431 285.973C145.958 283.04 145.719 280.034 145.537 277.065C145.426 275.248 145.393 273.436 145.235 271.621C145.122 270.303 144.623 268.306 144.981 267.015ZM188.388 155.635C188.446 154.728 186.098 154.765 185.661 153.722C184.774 151.605 186.795 151.987 188.038 151.767C187.595 150.59 179.296 151.019 181.23 147.841C182.571 145.636 187.657 149.011 189.016 146.915C189.91 145.539 187.478 145.35 186.514 145.212C185.063 145.004 181.645 145.676 181.757 143.793C181.899 141.428 188.545 139.795 190.409 139.1C190.202 137.48 182.204 139.783 181.047 140.439C178.427 141.925 176.42 144.592 176.035 147.556C175.588 151.004 177.336 153.72 180.781 154.566C182.217 154.919 183.278 154.958 184.607 155.489C185.481 155.837 188.311 156.707 188.91 155.827C188.736 155.763 188.562 155.699 188.388 155.635ZM235.339 134.187C235.472 132.715 236.711 129.942 235.283 128.975C233.284 127.621 232.456 129.852 232.003 131.192C231.45 132.829 229.122 136.835 231.157 137.854C231.63 138.092 233.875 137.815 234.271 137.659C235.374 137.947 235.729 137.534 235.339 136.419V134.187ZM186.562 253.106C186.437 249.081 188.239 244.243 189.26 240.301C190.418 235.834 191.028 231.279 192.254 226.862C190.89 227.026 189.513 227.16 188.165 227.434C186.326 227.808 186.293 227.749 186.425 229.553C186.622 232.262 186.364 234.918 186.224 237.627C185.944 243.049 186.626 248.56 186.172 253.949C186.577 254.051 186.707 253.77 186.562 253.106ZM237.481 147.626C241.9 148.302 246.135 149.703 250.156 151.586C252.372 152.623 254.813 153.738 257.29 154.152C260.041 154.613 262.96 154.397 265.77 154.574C266.76 154.637 269.365 155.118 270.331 154.536C271.287 153.958 271.213 152.98 271.257 151.814C271.373 148.814 270.016 145.878 268.795 143.187C267.748 140.878 266.956 139.115 265.331 137.129C263.244 134.578 261.427 131.826 259.473 129.163C257.999 127.157 256.51 125.178 255.008 123.174C253.934 121.739 253.985 121.245 252.365 121.405C250.771 121.564 249.165 122.506 247.663 123.006C245.434 123.747 242.734 124.154 240.701 125.34C239.387 126.107 239.328 126.248 239.343 127.586C239.358 128.832 239.76 130.352 240.505 131.327C242.054 133.35 244.621 134.422 246.823 135.431C248.098 136.015 249.199 136.843 250.334 137.649C251.556 138.517 254.022 139.029 254.958 140.019C257.681 142.901 252.723 142.332 251.338 142.245C248.349 142.057 245.377 142.085 242.365 142.083C239.079 142.081 235.818 141.928 232.578 142.035C230.68 142.097 228.503 141.135 227.273 139.53C226.678 138.753 226.446 138.018 225.667 137.212C224.647 136.156 223.76 135.044 222.519 134.227C220.488 132.889 216.798 132.133 214.38 132.632C215.246 132.753 219.318 134.139 217.525 135.881C217.307 136.093 214.688 136.232 214.119 136.493C213.092 136.965 211.797 137.651 211.194 138.647C212.949 138.353 219.455 138.013 216.136 141.379C215.321 142.205 212.982 143.03 214.973 143.908C215.43 144.11 216.345 143.824 216.933 144.006C217.808 144.277 218.523 145.002 219.343 145.388C221.668 146.485 224.872 147.161 227.298 146.921C230.653 146.588 234.149 147.187 237.481 147.626ZM148.514 249.05C148.628 253.885 148.454 258.749 148.557 263.607C148.667 268.794 149.333 273.878 149.65 279.013C149.935 283.616 150.556 288.131 151.061 292.711C151.352 295.35 151.686 297.873 152.133 300.491C152.551 302.942 152.622 305.101 149.693 305.759C144.093 307.019 143.222 298.963 142.14 295.568C140.525 290.502 139.488 285.183 138.688 279.931C137.197 270.149 135.216 260.504 134.442 250.64C133.966 244.566 133.276 238.554 132.884 232.485C132.807 231.296 133.11 229.464 132.066 228.934C131.438 228.616 129.708 228.613 128.915 228.383C126.706 227.74 124.668 226.794 122.513 225.812C124.043 233.811 124.548 241.769 125.695 249.838C126.304 254.119 127.469 258.555 128.479 262.77C129.525 267.136 129.758 271.838 130.964 276.109C131.496 277.992 131.946 278.759 131.175 280.691C130.228 283.063 130.856 283.63 132.043 285.96C134.226 290.246 135.893 295.304 135.523 300.136C135.221 304.082 132.239 306.147 128.546 307.212C123.926 308.543 119.088 308.386 114.44 309.898C110.391 311.215 106.277 312.188 102.344 313.927C100.759 314.628 99.2523 315.46 97.4917 315.588C95.0768 315.764 93.4484 314.363 91.1678 314.07C89.7424 313.888 87.6552 314.568 86.834 313.074C86.1829 311.889 86.9194 309.304 87.7369 308.351C90.0325 305.671 94.6301 303.336 97.7259 301.754C101.294 299.932 104.747 297.651 108.053 295.298C110.057 293.872 112.1 292.504 114.103 291.075C115.427 290.129 115.931 290.123 115.796 288.621C115.688 287.423 115.148 286.261 115.053 285.034C114.981 284.094 115.31 282.813 114.866 282.2C114.539 281.748 113.313 281.429 112.831 281.086C111.068 279.836 110.667 278.29 109.867 276.389C108.048 272.071 105.959 267.874 104.203 263.521C100.432 254.175 98.1309 244.347 95.0049 234.81C91.8115 225.067 88.9558 214.838 87.1971 204.73C84.8436 205.445 82.6224 208.615 80.748 210.183C78.216 212.302 75.6214 214.351 73.1383 216.529C69.0681 220.098 64.9467 223.569 61.5832 227.844C59.9626 229.902 58.6358 232.118 57.1687 234.28C56.3214 235.53 55.5311 236.944 54.6135 238.133C54.4662 238.324 54.4618 238.716 54.303 238.878C53.9536 239.235 53.286 238.759 53.0621 238.995C51.6789 240.441 51.697 244.547 51.2661 246.455C50.6722 249.085 50.0053 252.109 47.952 253.921C44.7799 256.721 38.9304 257.155 34.9162 257.3C29.7644 257.486 24.767 258.922 19.8793 260.464C17.5995 261.183 15.3794 262.024 13.0911 262.722C11.775 263.125 10.2736 263.926 8.86804 263.772C7.17302 263.586 5.83464 262.16 4.59304 261.1C2.60674 259.404 0.767731 257.732 0.833499 254.95C0.903429 252.005 2.49884 249.782 5.01214 248.319C9.87114 245.49 15.3057 243.678 20.5433 241.723C22.5502 240.974 24.2684 240.144 26.1873 239.136C28.8991 237.71 32.0203 236.546 34.4264 234.664C35.1356 234.108 37.7428 232.406 37.9648 231.529C37.9939 231.414 37.3425 230.074 37.3396 229.862C37.3333 229.315 37.657 228.723 37.8562 228.255C39.1093 225.309 41.2113 222.472 42.8183 219.694C45.7613 214.605 48.7157 209.49 52.1278 204.704C58.9319 195.163 66.5751 185.82 74.8245 177.491C78.8461 173.43 82.3212 168.825 86.3995 164.821C88.0153 163.235 89.721 161.943 91.7117 160.913C93.9311 159.766 96.4223 159.541 98.9661 159.19C105.131 158.342 110.279 160.165 116.066 161.752C121.537 163.252 127.014 164.517 132.516 166.08C138.559 167.795 144.539 169.441 150.562 171.311C153.78 172.31 157.091 172.923 160.324 173.882C161.881 174.343 167.768 177.234 169.066 176.284C164.976 174.365 160.787 172.616 156.412 171.458C155.124 171.117 154.301 171.495 154.348 170.015C154.375 169.208 155.282 168.119 155.608 167.455C156.39 165.864 157.275 164.31 158.04 162.715C155.266 163.503 147.811 166.229 145.721 163.411C143.534 160.461 145.36 154.679 146.731 151.791C150.309 144.253 156.395 137.962 162.325 132.279C163.608 131.051 166.373 129.446 167.057 127.881C167.265 127.406 166.812 126.707 167.281 126.088C167.561 125.721 168.681 125.47 169.129 125.074C170.759 123.63 172.06 120.593 173.187 118.7C174.367 116.718 175.43 114.572 176.913 112.794C179.338 109.886 181.843 106.804 185.77 106.124C187.696 105.791 189.742 105.969 191.588 105.303C193.821 104.499 195.942 103.231 198.197 102.398C197.637 101.248 197.184 99.4195 196.099 99.2939C195.054 99.1728 193.522 100.071 192.326 100.064C190.579 100.055 189.089 99.7752 187.403 99.4427C185.538 99.0737 184.924 99.1407 184.243 97.1172C183.531 94.9976 183.71 92.5355 183.716 90.3338C183.719 89.2578 183.932 87.9226 183.841 86.8664C183.703 85.2753 183.394 85.2141 182.147 84.2022C180.588 82.938 178.667 81.2651 180.576 79.0683C181.608 77.8814 183.727 78.8045 184.641 77.5291C185.571 76.2301 185.526 72.9669 185.81 71.441C182.941 72.8511 183.993 67.5797 183.993 66.3113C183.992 64.4656 182.755 61.1463 184.536 59.6107C185.363 58.8978 185.978 59.4876 186.924 59.0779C188.004 58.6103 188.683 57.3841 189.832 56.9086C192.115 55.9633 194.446 57.1016 196.789 56.9137C199.478 56.6984 202.118 56.2827 204.822 56.7142C206.102 56.9179 206.641 57.4044 207.725 57.9497C208.767 58.4742 209.825 58.6178 210.956 58.9552C211.964 59.2557 212.847 59.4075 213.527 60.2853C214.065 60.9797 213.846 62.1476 214.389 62.7462C214.925 63.336 215.985 63.2503 216.624 63.9507C217.237 64.6229 217.604 65.734 217.923 66.5705C218.353 67.6973 218.404 68.1204 219.162 69.0222C219.823 69.8092 220.774 70.442 221.326 71.3397C222.625 73.4557 222.659 76.5157 222.244 78.8961C222.103 79.7067 220.928 81.802 221.112 82.4917C221.287 83.1483 222.389 82.9756 222.888 83.3906C223.319 83.7496 223.698 85.3482 224.038 85.4458C224.772 85.6564 225.678 84.2059 226.235 83.9883C227.202 83.6101 227.607 83.2223 228.142 84.6478C228.539 85.7054 227.986 87.1412 227.695 88.1505C227.325 89.4357 226.915 90.9834 225.933 91.9552C224.779 93.0975 223.855 92.4729 222.582 93.0883C220.673 94.0104 221.236 96.8937 218.888 97.7175C216.65 98.5029 214.185 96.0324 212.492 94.8971C212.843 97.6538 214.162 100.31 213.529 103.135C218.676 101.119 223.767 98.2569 229.376 97.6265C232.236 97.3047 235.125 96.9235 237.825 98.1111C240.986 99.5009 242.922 102.566 245.061 105.114C249.081 109.901 253.206 114.554 257.065 119.495C260.604 124.028 263.588 129.28 267.483 133.524C271.433 137.828 274.414 144.811 273.982 150.77C273.943 151.308 273.526 152.53 273.591 153.11C273.642 153.555 274.046 154.118 274.04 154.477C274.018 155.683 273.619 156.377 272.47 157.046C270.477 158.207 267.508 158.794 265.255 159.082C262.263 159.465 258.599 159.506 255.605 159.097C252.518 158.675 249.804 156.947 246.964 155.902C244.474 154.986 241.973 154.414 239.355 153.829C237.912 153.506 236.314 152.613 235.422 153.478C234.603 154.272 234.432 158.348 234.242 159.431C232.171 171.178 229.71 182.526 227.531 194.213C225.061 207.459 223.372 220.701 221.655 234.059C220.093 246.203 219.583 258.484 219.234 270.616C219.067 276.403 219.043 282.128 219.079 287.92C219.098 291.164 220.72 301.99 215.912 302.404C213.086 302.649 210.826 298.598 210.069 296.389C208.931 293.069 208.339 289.495 208.157 286.008C207.79 278.949 207.309 271.885 207.024 264.824C206.716 257.173 207.108 249.382 207.737 241.756C208.37 234.08 209.965 226.516 210.454 218.828C208.987 220.922 208.517 221.316 206.073 222.227C203.515 223.183 201.054 224.312 198.473 225.202C197.596 225.505 196.225 225.695 195.505 226.191C194.177 227.106 195.05 226.067 194.626 227.848C194.173 229.75 194.087 232.034 193.967 233.988C193.402 243.161 190.86 252.269 189.688 261.393C189.405 263.597 189.809 272.949 186.018 270.001C183.098 267.732 183.156 260.602 182.74 257.262C182.187 252.811 182.495 248.234 182.583 243.755C182.682 238.655 182.768 233.305 183.985 228.325C181.808 227.952 178.779 228.967 176.587 229.138C174.689 229.286 172.798 229.38 170.91 229.484C166.41 229.731 161.774 229.928 157.198 229.839C156.365 229.823 150.922 229.061 150.226 229.676C150 229.875 149.931 232.619 149.889 232.955C149.729 234.216 149.512 235.475 149.35 236.729C148.832 240.738 148.366 245.042 148.514 249.05Z" fill="#374CB7"/>
<path fill-rule="evenodd" clip-rule="evenodd" d="M229.344 287.145C232.779 288.487 236.424 288.974 239.888 290.197C242.984 291.29 245.86 292.76 248.909 293.871C249.088 292.456 249.183 290.061 248.66 288.728C247.921 286.84 245.974 286.794 244.058 286.122C239.394 284.485 234.488 284.14 229.857 282.229C230.65 283.755 230.296 285.775 229.344 287.145ZM288.635 282.208C281.217 282.426 274.128 284.152 266.817 285.22C263.259 285.739 259.698 286.203 256.138 286.687C254.767 286.873 252.27 286.654 251.274 287.84C250.448 288.823 251.353 292.177 250.986 293.617C252.486 293.728 255.148 292.327 256.775 292.095C259.309 291.735 261.81 291.23 264.37 291.07C268.425 290.814 272.409 290.597 276.458 290.145C280.574 289.687 284.558 288.834 288.707 288.522C290.724 288.37 291.536 288.749 291.654 286.619C291.701 285.786 291.815 284.393 291.582 283.572C291.955 282.562 291.624 282.073 290.589 282.101C289.931 282.027 289.28 282.063 288.635 282.208ZM274.287 275.412C276.294 275.224 278.308 274.954 280.319 274.841C280.727 274.818 282.795 274.943 283.133 274.563C283.611 274.027 283.079 272.065 282.991 271.458C282.693 269.394 282.363 268.194 280.112 268.19C278.211 268.185 276.244 268.587 274.351 268.772C265.759 269.614 257.21 269.97 248.713 271.569C249.23 273.772 249.817 276.044 249.198 278.297C253.275 278.507 257.75 277.723 261.734 276.918C265.806 276.096 270.126 275.687 274.287 275.412ZM260.688 254.674C257.618 254.687 254.374 256.039 251.344 255.738C251.299 256.302 252.269 255.834 252.536 256.361C253.108 256.363 253.308 256.549 253.133 256.922C253.144 257.176 253.014 257.325 252.743 257.368C252.609 257.38 252.475 257.392 252.342 257.403C251.757 257.422 251.66 257.817 252.055 258.589C251.885 259.546 252.14 260.761 252.176 261.721C257.62 260.98 262.909 260.21 268.391 259.879C270.979 259.723 273.565 259.724 276.15 259.511C278.994 259.276 282.099 259.779 284.879 259.246C286.366 258.961 286.21 258.981 286.102 257.048C286.036 255.874 286.06 254.48 285.104 253.623C283.507 252.193 279.871 253.019 277.962 253.07C272.211 253.222 266.363 253.756 260.688 254.674ZM263.83 282.277C272.054 281.531 280.217 279.895 288.487 279.895C287.902 279.311 286.628 279.16 285.901 278.841C285.071 278.478 284.287 277.704 283.477 277.386C281.849 276.749 280.193 277.635 278.522 278.017C274.49 278.94 270.353 278.972 266.315 279.878C262.14 280.813 257.911 281.676 253.659 282.152C251.634 282.379 249.462 282.838 247.461 282.303C247.299 282.187 247.135 282.071 246.973 281.955C246.799 281.211 246.313 281.012 245.517 281.359C244.506 281.166 243.218 281.415 242.201 281.44C242.159 281.847 245.92 283.122 246.637 283.438C248.365 284.199 249.536 284.755 251.381 284.429C255.536 283.696 259.623 282.819 263.83 282.277ZM234.901 258.234C235.222 259.487 236.572 258.916 237.734 259.055C239.293 259.239 240.845 259.777 242.355 260.183C245.098 260.92 247.842 261.647 250.573 262.426C250.466 261.323 250.71 258.812 250.127 257.833C249.515 256.807 246.615 256.358 245.265 256.045C241.86 255.257 238.224 255.705 234.766 255.871C234.827 256.658 234.873 257.445 234.901 258.234ZM267.6 266.072C270.83 265.798 274.063 265.585 277.302 265.472C281.006 265.342 278.314 264.75 278.236 262.492C273.368 263.268 268.458 263.421 263.606 264.085C259.586 264.635 254.797 266.072 250.697 265.3C248.763 264.937 246.789 264.796 244.731 264.59C242.79 264.396 240.959 263.492 239.042 263.268C236.889 263.015 234.691 264.225 232.55 264.545C231.642 264.68 231.431 265.296 231.003 264.203C230.559 263.07 231.831 262.144 232.332 261.467C232.918 260.676 232.675 261.96 233 260.725C233.091 260.378 232.844 259.508 232.799 259.135C232.684 258.192 232.387 257.169 232.341 256.228C232.299 255.363 232.291 254.043 233.23 253.539C233.802 253.231 234.209 253.68 234.708 253.593C238.606 252.915 243.19 252.859 247.144 253.514C251.429 254.222 255.117 252.346 259.341 251.584C264.296 250.691 269.303 250.558 274.3 250.18C278.574 249.858 286.382 248.186 288.009 253.644C288.47 255.19 289.142 259.448 287.902 260.764C286.274 262.492 282.506 261.94 280.401 262.389C280.716 263.285 281.653 263.894 281.329 264.96C284.278 265.099 284.8 267.885 285.262 270.486C285.74 273.176 284.807 274.246 287.379 275.647C290.963 277.6 294.759 279.572 294.689 284.222C294.654 286.56 294.392 290.087 291.992 291.3C289.643 292.487 285.818 292.286 283.23 292.717C278.217 293.552 273.187 294.531 268.144 295.032C262.774 295.566 257.315 296.004 251.936 296.242C249.006 296.373 246.474 296.815 243.644 295.829C240.861 294.86 238.139 294.151 235.268 293.432C232.433 292.722 223.756 291.765 226.285 286.918C226.689 286.142 228.072 285.525 228.295 284.792C228.656 283.609 227.439 282.686 227.49 281.617C227.582 279.661 229.789 279.415 231.313 279.415C228.701 277.782 232.199 275.848 232.178 274.461C232.141 272.018 229.103 270.432 228.931 268.384C228.513 263.399 244.325 268.589 246.758 269.667C244.885 272.445 236.195 270.041 233.606 269.62C233.959 270.548 234.297 271.382 234.399 272.331C234.482 273.105 234.186 273.989 234.457 274.768C234.884 276 234.869 275.764 236.382 276.1C237.5 276.348 238.607 276.635 239.722 276.898C241.435 277.302 244.129 278.387 245.826 278.327C247.315 278.275 247.021 278.737 247.294 277.084C247.441 276.195 247.19 275.251 247.04 274.38C246.728 272.556 246.27 270.829 247.864 269.52C249.383 268.272 252.585 267.678 254.448 267.238C258.584 266.261 263.357 266.021 267.6 266.072Z" fill="#FF6A66"/>
<path fill-rule="evenodd" clip-rule="evenodd" d="M287.279 234.935C282.788 234.182 278.224 233.997 273.68 234.225C273.926 235.349 274.173 236.474 274.419 237.597C278.677 236.501 282.995 235.859 287.279 234.935ZM250.758 243.658C248.957 243.526 250.21 244.331 250.655 245.51C251.201 246.959 251.084 248.79 251.21 250.314C256.48 248.305 262.611 247.129 268.214 246.452C270.872 246.132 273.567 246.04 276.239 245.903C277.029 245.862 279.882 246.193 280.46 245.662C280.889 245.266 280.588 243.086 280.175 242.605C277.933 239.991 269.263 242.248 266.127 242.483C260.985 242.867 255.936 243.785 250.758 243.658ZM258.243 236.652C262.909 237.1 267.415 237.058 272.082 237.757C271.728 234.791 272.15 234.034 268.785 233.876C265.787 233.736 262.798 233.623 259.813 233.624C253.101 233.628 246.405 233.5 239.686 233.5V236.514C245.9 235.878 252.016 237.027 258.243 236.652ZM235.804 247.737C238.749 247.725 241.532 248.836 244.477 249.124C246.24 249.296 245.686 249.515 246.909 250.4C248.814 251.779 249.363 251.044 249.124 249.171C248.314 242.833 240.291 244.255 235.667 243.902C235.971 245.414 235.272 246.695 234.244 247.737H235.804ZM267.635 239.601C263.4 239.67 259.159 239.91 254.952 239.822C253.07 239.783 250.63 239.41 248.785 239.731C247.433 239.966 246.303 240.655 244.82 240.911C246.998 242.083 248.102 241.291 250.392 241.024C252.679 240.758 255.001 240.763 257.298 240.624C261.07 240.395 265.091 239.492 268.807 239.738C268.875 239.214 268.485 239.168 267.635 239.601ZM234.038 253.326C232.095 253.322 234.769 251.112 235.12 250.892C232.968 250.892 232.447 249.602 233.071 247.529C233.658 245.576 234.093 246.173 232.615 244.547C231.502 243.323 231.334 242.421 232.645 241.052C233.98 239.659 236.683 240.053 237.865 238.903C239.878 236.946 237.28 233.049 240.07 231.55C241.956 230.537 244.995 230.663 247.077 230.449C249.089 230.242 251.172 230.202 253.197 230.174C257.613 230.114 262.199 230.855 266.595 231.262C268.198 231.41 269.999 232.058 271.578 232.059C273.189 232.061 274.875 231.702 276.538 231.743C278.471 231.792 280.332 231.65 282.326 231.967C283.853 232.21 287.419 232.338 288.586 233.473C292.475 237.256 283.252 238.994 281.665 239.419C283.28 241.188 283.213 243.527 282.969 245.755C283.738 245.755 285.064 245.42 285.461 246.282C285.956 247.353 284.126 247.631 283.694 247.756C281.205 248.475 278.293 248.278 275.728 248.539C270.601 249.061 265.536 249.362 260.462 250.333C257.99 250.806 255.532 251.392 253.061 251.853C252.634 251.933 252.205 251.996 251.774 252.045C251.113 251.988 250.9 252.403 251.133 253.292C250.447 253.627 247.89 252.792 247.099 252.664C242.572 251.93 238.523 252.235 234.038 253.326Z" fill="#283FB1"/>
<path fill-rule="evenodd" clip-rule="evenodd" d="M325.443 297.281C322.524 299.579 319.81 301.747 316.648 303.743C318.883 303.674 326.316 300.109 325.443 297.281ZM324.303 293.537C322.71 292.167 321.127 292.307 319.154 291.892C317.338 291.51 315.573 290.852 313.761 290.414C312.338 290.07 310.931 289.606 309.513 289.281C307.512 288.822 307.314 289.327 305.474 290.376C298.946 294.096 291.641 296.655 284.766 299.674C286.784 301.452 291.326 301.528 293.848 302.095C295.691 302.508 297.444 303.074 299.208 303.728C300.851 304.338 303.498 305.741 305.23 305.788C306.693 305.827 307.882 304.388 309.141 303.613C310.797 302.592 312.446 301.59 314.115 300.596C317.648 298.491 320.951 295.912 324.303 293.537ZM294.803 308.605C294.05 307.88 291.782 307.912 290.837 307.691C288.976 307.256 287.142 306.804 285.256 306.477C282.195 305.948 277.36 305.711 277.028 301.74C276.751 298.441 280.738 297.658 283.07 296.54C286.577 294.858 290.155 293.306 293.751 291.823C297.122 290.433 300.542 289.257 303.975 288.056C304.645 287.822 305.188 287.854 305.735 287.318C306.166 286.895 306.033 286.075 306.505 285.633C307.587 284.621 308.991 285.153 310.292 285.413C313.245 286.002 316.311 286.775 319.126 287.868C322.051 289.003 324.668 289.24 325.371 292.557C326.867 291.855 327.992 291.753 327.813 293.815C327.761 294.421 327.321 295.08 327.215 295.705C327.06 296.627 327.332 297.598 327.178 298.522C326.618 301.88 322.089 304.368 319.283 305.687C315.823 307.313 311.358 309.716 307.494 310.033C303.377 310.372 298.89 308.755 294.803 308.605Z" fill="#283FB1"/>
<path fill-rule="evenodd" clip-rule="evenodd" d="M242.4 252.883C241.172 252.891 239.944 252.898 238.717 252.906C239.942 252.676 241.17 252.673 242.4 252.883Z" fill="black"/>
<path fill-rule="evenodd" clip-rule="evenodd" d="M170.592 123.012C170.224 123.625 169.856 124.239 169.487 124.853C169.613 124.062 169.893 123.384 170.592 123.012Z" fill="black"/>
<path fill-rule="evenodd" clip-rule="evenodd" d="M242.4 270.484C243.137 270.491 243.875 270.496 244.609 270.503C243.87 270.498 243.135 270.491 242.4 270.484Z" fill="black"/>
<path fill-rule="evenodd" clip-rule="evenodd" d="M259.338 230.425C258.479 230.378 257.62 230.332 256.761 230.285C257.62 230.332 258.479 230.378 259.338 230.425Z" fill="black"/>
<path fill-rule="evenodd" clip-rule="evenodd" d="M244.609 252.901C243.872 252.894 243.135 252.887 242.4 252.88C243.139 252.679 243.875 252.686 244.609 252.901Z" fill="black"/>
<path fill-rule="evenodd" clip-rule="evenodd" d="M273.916 148.421C273.895 147.684 273.874 146.947 273.853 146.211C273.874 146.949 273.895 147.684 273.916 148.421Z" fill="black"/>
<path fill-rule="evenodd" clip-rule="evenodd" d="M148.704 259.63C148.689 259.016 148.674 258.402 148.659 257.789C148.674 258.404 148.689 259.017 148.704 259.63Z" fill="black"/>
<path fill-rule="evenodd" clip-rule="evenodd" d="M168.751 229.618C169.243 229.618 169.735 229.618 170.224 229.619C169.731 229.619 169.24 229.618 168.751 229.618Z" fill="black"/>
<path fill-rule="evenodd" clip-rule="evenodd" d="M234.666 97.3523C234.052 97.3969 233.439 97.441 232.825 97.4856C233.439 97.441 234.053 97.3969 234.666 97.3523Z" fill="black"/>
<path fill-rule="evenodd" clip-rule="evenodd" d="M281.065 231.835C280.329 231.83 279.592 231.826 278.856 231.821C279.592 231.826 280.329 231.83 281.065 231.835Z" fill="black"/>
<path fill-rule="evenodd" clip-rule="evenodd" d="M219.044 277.306C219.025 276.814 219.006 276.322 218.989 275.833C219.007 276.325 219.025 276.816 219.044 277.306Z" fill="black"/>
<path fill-rule="evenodd" clip-rule="evenodd" d="M219.772 258.525C219.759 258.034 219.746 257.542 219.733 257.052C219.746 257.543 219.76 258.034 219.772 258.525Z" fill="black"/>
<path fill-rule="evenodd" clip-rule="evenodd" d="M207.206 266.995C207.223 267.487 207.242 267.979 207.259 268.468C207.241 267.976 207.223 267.486 207.206 266.995Z" fill="black"/>
<path fill-rule="evenodd" clip-rule="evenodd" d="M171.697 229.258C172.066 229.252 172.435 229.247 172.802 229.242C172.431 229.247 172.064 229.252 171.697 229.258Z" fill="black"/>
<path fill-rule="evenodd" clip-rule="evenodd" d="M278.487 248.423C278.857 248.407 279.226 248.391 279.592 248.375C279.221 248.391 278.854 248.407 278.487 248.423Z" fill="black"/>
<path fill-rule="evenodd" clip-rule="evenodd" d="M207.937 278.779C207.958 279.27 207.979 279.762 208 280.252C207.979 279.759 207.958 279.269 207.937 278.779Z" fill="black"/>
<path fill-rule="evenodd" clip-rule="evenodd" d="M247.408 276.201C247.383 276.693 247.358 277.185 247.334 277.674C247.358 277.182 247.383 276.692 247.408 276.201Z" fill="black"/>
<path fill-rule="evenodd" clip-rule="evenodd" d="M204.965 56.7822C204.445 56.716 203.925 56.6502 203.404 56.5839C203.92 56.7033 204.485 56.2608 204.965 56.7822Z" fill="black"/>
<path fill-rule="evenodd" clip-rule="evenodd" d="M182.581 245.637C182.567 246.129 182.553 246.62 182.538 247.11C182.552 246.617 182.567 246.127 182.581 245.637Z" fill="black"/>
<path fill-rule="evenodd" clip-rule="evenodd" d="M150.929 290.562C150.904 290.071 150.878 289.58 150.853 289.089C150.879 289.581 150.904 290.071 150.929 290.562Z" fill="black"/>
<path fill-rule="evenodd" clip-rule="evenodd" d="M270.018 249.147C270.388 249.139 270.757 249.131 271.122 249.124C270.752 249.132 270.385 249.139 270.018 249.147Z" fill="black"/>
<path fill-rule="evenodd" clip-rule="evenodd" d="M144.995 159.836C144.998 160.328 145.001 160.82 145.003 161.309C145 160.817 144.998 160.327 144.995 159.836Z" fill="black"/>
<path fill-rule="evenodd" clip-rule="evenodd" d="M137.269 270.309C137.267 270.801 137.266 271.293 137.263 271.782C137.265 271.29 137.267 270.799 137.269 270.309Z" fill="black"/>
<path fill-rule="evenodd" clip-rule="evenodd" d="M229.048 267.363C229.035 267.855 229.022 268.347 229.008 268.836C228.806 268.331 228.829 267.842 229.048 267.363Z" fill="black"/>
<path fill-rule="evenodd" clip-rule="evenodd" d="M219.39 265.154C219.386 264.662 219.382 264.171 219.378 263.681C219.382 264.173 219.386 264.663 219.39 265.154Z" fill="black"/>
<path fill-rule="evenodd" clip-rule="evenodd" d="M294.69 308.775C295.06 308.786 295.429 308.796 295.795 308.806C295.423 308.796 295.057 308.786 294.69 308.775Z" fill="black"/>
<path fill-rule="evenodd" clip-rule="evenodd" d="M281.433 262.03C281.68 262.026 281.926 262.022 282.17 262.017C281.922 262.022 281.678 262.026 281.433 262.03Z" fill="black"/>
<path fill-rule="evenodd" clip-rule="evenodd" d="M272.227 263.129C272.474 263.128 272.72 263.128 272.964 263.127C272.717 263.128 272.472 263.129 272.227 263.129Z" fill="black"/>
<path fill-rule="evenodd" clip-rule="evenodd" d="M128.818 265.522C128.804 265.154 128.789 264.785 128.774 264.417C128.789 264.786 128.804 265.155 128.818 265.522Z" fill="black"/>
<path fill-rule="evenodd" clip-rule="evenodd" d="M279.592 265.243C279.272 265.566 278.861 265.375 278.487 265.396C278.855 265.345 279.224 265.294 279.592 265.243Z" fill="black"/>
<path fill-rule="evenodd" clip-rule="evenodd" d="M235.771 253.461C235.285 253.691 234.793 253.722 234.298 253.477C234.789 253.472 235.28 253.466 235.771 253.461Z" fill="black"/>
<path fill-rule="evenodd" clip-rule="evenodd" d="M267.808 266.08C267.317 266.076 266.826 266.072 266.335 266.068C266.827 266.072 267.318 266.076 267.808 266.08Z" fill="black"/>
<path fill-rule="evenodd" clip-rule="evenodd" d="M247.187 253.253C246.696 253.208 246.204 253.164 245.714 253.119C246.204 253.164 246.696 253.208 247.187 253.253Z" fill="black"/>
<path fill-rule="evenodd" clip-rule="evenodd" d="M134.703 251.529C134.694 251.898 134.684 252.267 134.674 252.634C134.683 252.264 134.693 251.896 134.703 251.529Z" fill="black"/>
<path fill-rule="evenodd" clip-rule="evenodd" d="M219.356 271.414C219.375 271.045 219.394 270.676 219.413 270.309C219.394 270.679 219.375 271.046 219.356 271.414Z" fill="black"/>
<path fill-rule="evenodd" clip-rule="evenodd" d="M270.018 250.178C269.527 250.219 269.036 250.261 268.545 250.302C269.036 250.261 269.527 250.219 270.018 250.178Z" fill="black"/>
<path fill-rule="evenodd" clip-rule="evenodd" d="M148.697 248.951C148.687 248.582 148.676 248.213 148.666 247.846C148.676 248.216 148.687 248.583 148.697 248.951Z" fill="black"/>
<path fill-rule="evenodd" clip-rule="evenodd" d="M210.222 220.597C210.193 220.966 210.164 221.334 210.135 221.701C210.164 221.332 210.193 220.965 210.222 220.597Z" fill="black"/>
<path fill-rule="evenodd" clip-rule="evenodd" d="M277.383 231.739C276.891 231.994 276.4 231.962 275.91 231.737C276.4 231.738 276.892 231.739 277.383 231.739Z" fill="black"/>
<path fill-rule="evenodd" clip-rule="evenodd" d="M219.049 282.829C219.027 282.46 219.005 282.092 218.984 281.725C219.005 282.094 219.027 282.461 219.049 282.829Z" fill="black"/>
<path fill-rule="evenodd" clip-rule="evenodd" d="M219.039 285.775C219.024 285.407 219.008 285.038 218.993 284.67C219.009 285.039 219.024 285.407 219.039 285.775Z" fill="black"/>
<path fill-rule="evenodd" clip-rule="evenodd" d="M149.411 237.167C149.416 236.799 149.421 236.429 149.426 236.062C149.42 236.432 149.416 236.799 149.411 237.167Z" fill="black"/>
<path fill-rule="evenodd" clip-rule="evenodd" d="M254.183 295.912C254.429 295.905 254.676 295.898 254.92 295.892C254.672 295.899 254.428 295.905 254.183 295.912Z" fill="black"/>
<path fill-rule="evenodd" clip-rule="evenodd" d="M135.455 299.032C135.435 298.663 135.415 298.295 135.395 297.927C135.415 298.296 135.435 298.664 135.455 299.032Z" fill="black"/>
<path fill-rule="evenodd" clip-rule="evenodd" d="M215.15 302.154C215.396 302.159 215.643 302.164 215.886 302.17C215.639 302.165 215.394 302.159 215.15 302.154Z" fill="black"/>
<path fill-rule="evenodd" clip-rule="evenodd" d="M268.545 231.515C268.054 231.478 267.563 231.441 267.072 231.404C267.563 231.441 268.054 231.478 268.545 231.515Z" fill="black"/>
<path fill-rule="evenodd" clip-rule="evenodd" d="M271.122 231.904L270.018 231.751L271.122 231.904Z" fill="black"/>
<path fill-rule="evenodd" clip-rule="evenodd" d="M215.303 270.677C215.324 269.572 215.344 268.468 215.365 267.363C215.344 268.468 215.324 269.573 215.303 270.677Z" fill="black"/>
<path fill-rule="evenodd" clip-rule="evenodd" d="M186.592 230.171C186.604 231.031 186.617 231.891 186.63 232.749C186.617 231.888 186.604 231.029 186.592 230.171Z" fill="black"/>
<path fill-rule="evenodd" clip-rule="evenodd" d="M123.089 284.107C122.474 284.114 121.858 284.122 121.248 284.13C121.864 284.122 122.476 284.115 123.089 284.107Z" fill="black"/>
<path fill-rule="evenodd" clip-rule="evenodd" d="M173.538 210.852C172.923 210.843 172.308 210.833 171.697 210.824C172.314 210.834 172.926 210.843 173.538 210.852Z" fill="black"/>
<path fill-rule="evenodd" clip-rule="evenodd" d="M157.704 225.2C158.318 225.2 158.932 225.199 159.545 225.199C158.931 225.199 158.317 225.2 157.704 225.2Z" fill="black"/>
<path fill-rule="evenodd" clip-rule="evenodd" d="M165.805 210.458C165.312 210.466 164.82 210.474 164.332 210.482C164.826 210.474 165.316 210.466 165.805 210.458Z" fill="black"/>
<path fill-rule="evenodd" clip-rule="evenodd" d="M126.035 284.122C125.542 284.119 125.05 284.117 124.562 284.114C125.056 284.117 125.545 284.119 126.035 284.122Z" fill="black"/>
<path fill-rule="evenodd" clip-rule="evenodd" d="M192.318 96.0102C192.932 95.9675 193.546 95.9248 194.16 95.8821C193.546 95.9248 192.932 95.9675 192.318 96.0102Z" fill="black"/>
<path fill-rule="evenodd" clip-rule="evenodd" d="M200.57 139.215C200.592 138.601 200.615 137.987 200.638 137.374C200.615 137.988 200.592 138.601 200.57 139.215Z" fill="black"/>
<path fill-rule="evenodd" clip-rule="evenodd" d="M185.69 144.922C185.321 144.922 184.951 144.922 184.585 144.923C184.956 144.923 185.323 144.922 185.69 144.922Z" fill="black"/>
<path fill-rule="evenodd" clip-rule="evenodd" d="M154.389 209.359C154.02 209.363 153.65 209.367 153.285 209.371C153.655 209.368 154.022 209.363 154.389 209.359Z" fill="black"/>
<path fill-rule="evenodd" clip-rule="evenodd" d="M145.92 224.403C146.411 224.443 146.902 224.483 147.393 224.523C146.901 224.483 146.411 224.443 145.92 224.403Z" fill="black"/>
<path fill-rule="evenodd" clip-rule="evenodd" d="M144.987 243.059C144.995 242.568 145.003 242.077 145.01 241.586C145.003 242.078 144.995 242.569 144.987 243.059Z" fill="black"/>
<path fill-rule="evenodd" clip-rule="evenodd" d="M187.163 223.43C187.654 223.382 188.145 223.334 188.636 223.286C188.145 223.334 187.654 223.382 187.163 223.43Z" fill="black"/>
<path fill-rule="evenodd" clip-rule="evenodd" d="M220.814 214.704C220.843 214.213 220.872 213.721 220.901 213.231C220.872 213.723 220.843 214.214 220.814 214.704Z" fill="black"/>
<path fill-rule="evenodd" clip-rule="evenodd" d="M227.301 146.821C227.793 146.782 228.283 146.744 228.774 146.707C228.283 146.744 227.793 146.782 227.301 146.821Z" fill="black"/>
<path fill-rule="evenodd" clip-rule="evenodd" d="M177.221 211.212C176.851 211.208 176.482 211.204 176.116 211.201C176.487 211.204 176.854 211.208 177.221 211.212Z" fill="black"/>
<path fill-rule="evenodd" clip-rule="evenodd" d="M145.026 270.677C145.008 270.309 144.99 269.94 144.972 269.573C144.99 269.942 145.008 270.31 145.026 270.677Z" fill="black"/>
<path fill-rule="evenodd" clip-rule="evenodd" d="M186.313 251.897C187.118 253.893 186.666 252.48 186.687 252.94C186.001 253.032 185.876 252.684 186.313 251.897Z" fill="black"/>
<path fill-rule="evenodd" clip-rule="evenodd" d="M152.548 209.385C152.179 209.372 151.809 209.358 151.443 209.345C151.815 209.358 152.181 209.371 152.548 209.385Z" fill="black"/>
<path fill-rule="evenodd" clip-rule="evenodd" d="M227.819 171.989C227.842 171.497 227.866 171.006 227.889 170.516C227.865 171.007 227.842 171.498 227.819 171.989Z" fill="black"/>
<path fill-rule="evenodd" clip-rule="evenodd" d="M145.001 266.995C145 266.504 144.998 266.013 144.997 265.522C144.998 266.014 144.999 266.505 145.001 266.995Z" fill="black"/>
<path fill-rule="evenodd" clip-rule="evenodd" d="M144.961 255.948C144.986 255.579 145.012 255.21 145.037 254.843C145.012 255.212 144.986 255.58 144.961 255.948Z" fill="black"/>
<path fill-rule="evenodd" clip-rule="evenodd" d="M221.542 207.708C221.576 207.339 221.611 206.971 221.645 206.603C221.611 206.972 221.576 207.34 221.542 207.708Z" fill="black"/>
<path fill-rule="evenodd" clip-rule="evenodd" d="M140.163 257.052C140.195 257.421 140.229 257.79 140.261 258.157C140.228 257.788 140.195 257.42 140.163 257.052Z" fill="black"/>
<path fill-rule="evenodd" clip-rule="evenodd" d="M139.421 254.106C139.457 254.475 139.494 254.844 139.53 255.211C139.494 254.842 139.457 254.474 139.421 254.106Z" fill="black"/>
<path fill-rule="evenodd" clip-rule="evenodd" d="M213.083 203.657C213.11 203.289 213.138 202.921 213.165 202.553C213.137 202.922 213.11 203.29 213.083 203.657Z" fill="black"/>
<path fill-rule="evenodd" clip-rule="evenodd" d="M25.1361 253.613C25.6266 253.574 26.1178 253.535 26.6091 253.497C26.1167 253.535 25.6262 253.574 25.1361 253.613Z" fill="black"/>
<path fill-rule="evenodd" clip-rule="evenodd" d="M209.831 262.576C209.817 262.945 209.802 263.315 209.789 263.681C209.803 263.311 209.817 262.944 209.831 262.576Z" fill="black"/>
<path fill-rule="evenodd" clip-rule="evenodd" d="M215.661 263.681C215.688 263.313 215.716 262.944 215.743 262.576C215.716 262.945 215.688 263.313 215.661 263.681Z" fill="black"/>
<path fill-rule="evenodd" clip-rule="evenodd" d="M213.434 202.184C213.473 201.816 213.512 201.447 213.551 201.08C213.512 201.449 213.473 201.816 213.434 202.184Z" fill="black"/>
<path fill-rule="evenodd" clip-rule="evenodd" d="M28.082 253.258C28.5733 253.21 29.0645 253.162 29.555 253.113C29.0645 253.162 28.5725 253.21 28.082 253.258Z" fill="black"/>
<path fill-rule="evenodd" clip-rule="evenodd" d="M184.217 210.834C183.971 210.837 183.724 210.839 183.48 210.842C183.728 210.839 183.972 210.837 184.217 210.834Z" fill="black"/>
<path fill-rule="evenodd" clip-rule="evenodd" d="M145.001 252.634C145 252.265 144.998 251.896 144.997 251.529C144.998 251.898 145 252.265 145.001 252.634Z" fill="black"/>
<path fill-rule="evenodd" clip-rule="evenodd" d="M216.467 251.897C216.336 251.516 216.272 251.141 216.524 250.792C216.505 251.161 216.486 251.529 216.467 251.897Z" fill="black"/>
<path fill-rule="evenodd" clip-rule="evenodd" d="M210.194 244.9C210.184 245.269 210.173 245.638 210.163 246.005C210.174 245.636 210.184 245.268 210.194 244.9Z" fill="black"/>
<path fill-rule="evenodd" clip-rule="evenodd" d="M210.512 281.356C210.535 281.725 210.558 282.094 210.581 282.461C210.558 282.092 210.535 281.724 210.512 281.356Z" fill="black"/>
<path fill-rule="evenodd" clip-rule="evenodd" d="M237.612 147.422C237.981 147.474 238.349 147.527 238.717 147.579C238.348 147.526 237.981 147.474 237.612 147.422Z" fill="black"/>
<path fill-rule="evenodd" clip-rule="evenodd" d="M236.14 147.456C236.634 147.486 237.176 147.248 237.612 147.596L236.14 147.456Z" fill="black"/>
<path fill-rule="evenodd" clip-rule="evenodd" d="M173.17 225.203C173.661 225.201 174.152 225.198 174.643 225.196C174.152 225.198 173.661 225.201 173.17 225.203Z" fill="black"/>
<path fill-rule="evenodd" clip-rule="evenodd" d="M184.217 147.068L185.69 147.196C185.198 147.153 184.708 147.111 184.217 147.068Z" fill="black"/>
<path fill-rule="evenodd" clip-rule="evenodd" d="M159.913 225.104C160.404 225.106 160.895 225.108 161.386 225.11C160.893 225.347 160.402 225.37 159.913 225.104Z" fill="black"/>
<path fill-rule="evenodd" clip-rule="evenodd" d="M146.514 286.88C146.487 286.511 146.459 286.142 146.43 285.775C146.459 286.145 146.487 286.512 146.514 286.88Z" fill="black"/>
<path fill-rule="evenodd" clip-rule="evenodd" d="M200.228 147.684C200.233 147.315 200.238 146.947 200.244 146.58C200.238 146.949 200.233 147.317 200.228 147.684Z" fill="black"/>
<path fill-rule="evenodd" clip-rule="evenodd" d="M169.119 225.259C169.61 225.219 170.101 225.18 170.592 225.14C170.101 225.18 169.61 225.219 169.119 225.259Z" fill="black"/>
<path fill-rule="evenodd" clip-rule="evenodd" d="M210.903 290.194C210.91 290.563 210.919 290.932 210.927 291.299C210.919 290.929 210.91 290.562 210.903 290.194Z" fill="black"/>
<path fill-rule="evenodd" clip-rule="evenodd" d="M212.204 138.364C212.694 138.318 213.186 138.271 213.677 138.224C213.186 138.271 212.694 138.318 212.204 138.364Z" fill="black"/>
<path fill-rule="evenodd" clip-rule="evenodd" d="M218.597 232.38C218.631 232.012 218.665 231.643 218.698 231.275C218.665 231.644 218.631 232.012 218.597 232.38Z" fill="black"/>
<path fill-rule="evenodd" clip-rule="evenodd" d="M235.545 134.059C235.573 133.69 235.601 133.322 235.629 132.955C235.601 133.324 235.573 133.691 235.545 134.059Z" fill="black"/>
<path fill-rule="evenodd" clip-rule="evenodd" d="M200.593 102.39C200.6 102.759 200.607 103.128 200.615 103.495C200.608 103.126 200.601 102.758 200.593 102.39Z" fill="black"/>
<path fill-rule="evenodd" clip-rule="evenodd" d="M187.531 95.5164C188.022 95.5572 188.514 95.5985 189.004 95.639C188.513 95.5981 188.022 95.5572 187.531 95.5164Z" fill="black"/>
<path fill-rule="evenodd" clip-rule="evenodd" d="M113.883 304.812C114.374 304.764 114.864 304.716 115.356 304.668C114.864 304.716 114.374 304.764 113.883 304.812Z" fill="black"/>
<path fill-rule="evenodd" clip-rule="evenodd" d="M188.268 91.8958C188.021 91.8954 187.774 91.895 187.531 91.895C187.779 91.8958 188.023 91.8958 188.268 91.8958Z" fill="black"/>
<path fill-rule="evenodd" clip-rule="evenodd" d="M97.6799 309.608C98.1715 309.355 98.662 309.427 99.1529 309.61C98.662 309.609 98.1704 309.609 97.6799 309.608Z" fill="black"/>
<path fill-rule="evenodd" clip-rule="evenodd" d="M288.798 288.235C289.658 288.191 290.517 288.147 291.376 288.103C290.517 288.147 289.658 288.191 288.798 288.235Z" fill="black"/>
<path fill-rule="evenodd" clip-rule="evenodd" d="M288.798 281.892C288.305 281.903 287.813 281.915 287.325 281.926C287.819 281.915 288.308 281.903 288.798 281.892Z" fill="black"/>
<path fill-rule="evenodd" clip-rule="evenodd" d="M281.433 274.589C282.047 274.542 282.661 274.495 283.274 274.448C282.702 274.808 282.047 274.542 281.433 274.589Z" fill="black"/>
<path fill-rule="evenodd" clip-rule="evenodd" d="M274.437 275.347C275.05 275.303 275.664 275.258 276.278 275.214C275.664 275.258 275.05 275.303 274.437 275.347Z" fill="black"/>
<path fill-rule="evenodd" clip-rule="evenodd" d="M264.126 281.966C264.617 281.928 265.108 281.89 265.599 281.852C265.108 281.89 264.617 281.928 264.126 281.966Z" fill="black"/>
<path fill-rule="evenodd" clip-rule="evenodd" d="M266.704 281.967C267.194 281.928 267.686 281.889 268.177 281.851C267.686 281.889 267.194 281.928 266.704 281.967Z" fill="black"/>
<path fill-rule="evenodd" clip-rule="evenodd" d="M268.545 281.606C269.036 281.562 269.526 281.519 270.018 281.476C269.527 281.519 269.036 281.562 268.545 281.606Z" fill="black"/>
<path fill-rule="evenodd" clip-rule="evenodd" d="M271.122 269.017C270.753 269.02 270.384 269.022 270.018 269.024C270.389 269.021 270.756 269.019 271.122 269.017Z" fill="black"/>
<path fill-rule="evenodd" clip-rule="evenodd" d="M280.328 289.304C280.819 289.262 281.31 289.22 281.801 289.179C281.343 289.501 280.825 289.316 280.328 289.304Z" fill="black"/>
<path fill-rule="evenodd" clip-rule="evenodd" d="M266.335 259.885C266.826 259.838 267.317 259.791 267.808 259.744C267.317 259.791 266.826 259.838 266.335 259.885Z" fill="black"/>
<path fill-rule="evenodd" clip-rule="evenodd" d="M264.494 253.923C264.124 253.923 263.755 253.922 263.389 253.922C263.761 253.922 264.127 253.923 264.494 253.923Z" fill="black"/>
<path fill-rule="evenodd" clip-rule="evenodd" d="M260.812 254.657C260.565 254.659 260.319 254.66 260.075 254.661C260.323 254.659 260.567 254.658 260.812 254.657Z" fill="black"/>
<path fill-rule="evenodd" clip-rule="evenodd" d="M251.974 255.683C251.85 255.986 251.199 255.947 251.239 255.636C251.484 255.652 251.728 255.668 251.974 255.683Z" fill="black"/>
<path fill-rule="evenodd" clip-rule="evenodd" d="M234.828 257.052C234.843 257.42 234.858 257.789 234.873 258.157C234.858 257.788 234.843 257.42 234.828 257.052Z" fill="black"/>
<path fill-rule="evenodd" clip-rule="evenodd" d="M285.115 259.005C285.484 258.998 285.852 258.993 286.22 258.986C285.856 259.246 285.488 259.21 285.115 259.005Z" fill="black"/>
<path fill-rule="evenodd" clip-rule="evenodd" d="M271.123 253.549C270.876 253.553 270.63 253.556 270.386 253.559C270.634 253.556 270.878 253.553 271.123 253.549Z" fill="black"/>
<path fill-rule="evenodd" clip-rule="evenodd" d="M261.548 276.822C262.04 276.776 262.531 276.731 263.021 276.685C262.53 276.731 262.04 276.776 261.548 276.822Z" fill="black"/>
<path fill-rule="evenodd" clip-rule="evenodd" d="M255.656 277.554L257.129 277.426L255.656 277.554Z" fill="black"/>
<path fill-rule="evenodd" clip-rule="evenodd" d="M284.379 288.607C284.87 288.56 285.361 288.514 285.852 288.468C285.361 288.514 284.87 288.56 284.379 288.607Z" fill="black"/>
<path fill-rule="evenodd" clip-rule="evenodd" d="M266.704 290.824C267.196 290.644 267.687 290.582 268.177 290.828C267.685 290.826 267.194 290.825 266.704 290.824Z" fill="black"/>
<path fill-rule="evenodd" clip-rule="evenodd" d="M265.923 240.064L265.23 239.825C266.09 239.814 266.949 239.804 267.808 239.793C267.81 239.794 266.022 240.072 265.923 240.064Z" fill="black"/>
<path fill-rule="evenodd" clip-rule="evenodd" d="M259.339 233.67C258.723 233.67 258.108 233.669 257.497 233.668C258.113 233.669 258.726 233.67 259.339 233.67Z" fill="black"/>
<path fill-rule="evenodd" clip-rule="evenodd" d="M236.14 247.746C236.752 247.501 237.366 247.548 237.981 247.739C237.367 247.741 236.753 247.744 236.14 247.746Z" fill="black"/>
<path fill-rule="evenodd" clip-rule="evenodd" d="M273.332 241.764C272.963 241.768 272.593 241.773 272.227 241.777C272.598 241.772 272.965 241.768 273.332 241.764Z" fill="black"/>
<path fill-rule="evenodd" clip-rule="evenodd" d="M265.599 236.923C266.213 236.963 266.827 237.003 267.44 237.044C266.827 237.003 266.212 236.963 265.599 236.923Z" fill="black"/>
<path fill-rule="evenodd" clip-rule="evenodd" d="M257.866 240.731C258.48 240.687 259.093 240.644 259.707 240.601C259.093 240.644 258.48 240.687 257.866 240.731Z" fill="black"/>
<path fill-rule="evenodd" clip-rule="evenodd" d="M262.653 239.992C263.144 239.95 263.635 239.909 264.126 239.867C263.635 239.909 263.144 239.95 262.653 239.992Z" fill="black"/>
<path fill-rule="evenodd" clip-rule="evenodd" d="M258.602 236.555C259.093 236.595 259.584 236.635 260.075 236.675C259.584 236.635 259.093 236.595 258.602 236.555Z" fill="black"/>
<path fill-rule="evenodd" clip-rule="evenodd" d="M251.605 243.619C251.359 243.614 251.113 243.609 250.869 243.604C251.116 243.609 251.361 243.614 251.605 243.619Z" fill="black"/>
<path fill-rule="evenodd" clip-rule="evenodd" d="M259.339 239.952C259.092 239.937 258.846 239.921 258.602 239.906C258.85 239.921 259.094 239.937 259.339 239.952Z" fill="black"/>
<path fill-rule="evenodd" clip-rule="evenodd" d="M254.552 239.939C254.305 239.932 254.058 239.925 253.815 239.919C254.063 239.926 254.307 239.933 254.552 239.939Z" fill="black"/>
<path fill-rule="evenodd" clip-rule="evenodd" d="M267.808 239.597C267.808 239.692 268.918 239.208 268.913 239.658L267.808 239.597Z" fill="black"/>
<path fill-rule="evenodd" clip-rule="evenodd" d="M263.758 233.668C263.511 233.669 263.265 233.67 263.021 233.67C263.269 233.67 263.513 233.669 263.758 233.668Z" fill="black"/>
<path fill-rule="evenodd" clip-rule="evenodd" d="M133.031 216.205C133.43 214.578 133.321 213.305 134.742 214.345C135.521 214.916 136.806 217.811 136.708 218.791C136.588 220.001 136.037 220.483 134.898 220.098C133.589 219.655 133.07 217.423 133.031 216.205Z" fill="black"/>
<path fill-rule="evenodd" clip-rule="evenodd" d="M204.776 206.326C208.074 206.326 206.635 209.836 203.886 209.914C202.623 209.95 200.806 209.701 201.215 208.01C201.434 207.108 204.638 205.891 204.776 206.326Z" fill="black"/>
<path fill-rule="evenodd" clip-rule="evenodd" d="M169.404 213.231C171.785 214.383 168.435 219.441 166.272 218.189C163.502 216.587 168.425 213.953 169.404 213.231Z" fill="black"/>
<path fill-rule="evenodd" clip-rule="evenodd" d="M163.612 218.019C164.391 218.868 167.902 221.75 165.967 222.909C163.587 224.334 161.775 219.63 163.612 218.019Z" fill="black"/>
<path fill-rule="evenodd" clip-rule="evenodd" d="M123.707 215.809C122.932 214.312 123.998 210.392 126.363 211.109C128.742 211.83 125.016 215.411 123.707 215.809Z" fill="black"/>
<path fill-rule="evenodd" clip-rule="evenodd" d="M176.241 216.672C177.785 216.051 177.491 217.89 177.724 218.483C177.989 219.157 179.348 220.799 179.007 221.516C178.501 222.581 177.292 221.902 176.635 221.211C175.483 219.999 175.565 218.056 176.241 216.672Z" fill="black"/>
<path fill-rule="evenodd" clip-rule="evenodd" d="M152.71 218.377C151.424 218.377 148.351 214.666 150.157 214.044C152.397 213.271 154.27 218.649 152.71 218.377Z" fill="black"/>
<path fill-rule="evenodd" clip-rule="evenodd" d="M197.182 212.495C198.361 212.786 199.921 216.123 198.144 216.51C196.178 216.939 195.827 213.418 197.182 212.495Z" fill="black"/>
<path fill-rule="evenodd" clip-rule="evenodd" d="M190.036 218.755C189.112 216.975 188.884 213.164 191.141 216.223C191.63 216.886 192.135 216.618 191.883 217.71C191.664 218.665 190.788 218.755 190.036 218.755Z" fill="black"/>
<path fill-rule="evenodd" clip-rule="evenodd" d="M141.348 209.549C142.29 210.967 142.012 215.413 140.044 212.783C139.206 211.665 139.783 209.602 141.348 209.549Z" fill="black"/>
<path fill-rule="evenodd" clip-rule="evenodd" d="M188.705 75.913C190.533 75.4411 190.971 79.7506 189.905 80.2256C188.413 80.8904 188.6 76.6339 188.705 75.913Z" fill="black"/>
<path fill-rule="evenodd" clip-rule="evenodd" d="M304.322 294.852C302.625 294.753 300.249 294.29 302.819 293.087C304.449 292.324 306.873 292.271 308.595 292.584C309.781 292.799 311.562 293.783 309.751 295.058C308.691 295.804 305.611 294.889 304.322 294.852Z" fill="#283FB1"/>
<path fill-rule="evenodd" clip-rule="evenodd" d="M302.421 297.927C301.93 297.872 301.44 297.816 300.95 297.762C301.343 297.048 302.486 296.898 302.421 297.927Z" fill="black"/>
<path fill-rule="evenodd" clip-rule="evenodd" d="M304.632 294.781C305.125 294.792 305.617 294.803 306.105 294.814C305.612 294.803 305.122 294.792 304.632 294.781Z" fill="black"/>
</g>
</svg>
